<?xml version="1.0" encoding="UTF-8" standalone="no"?>
<!DOCTYPE svg PUBLIC "-//W3C//DTD SVG 1.1//EN"
 "http://www.w3.org/Graphics/SVG/1.1/DTD/svg11.dtd">
<!-- Generated by graphviz version 2.43.0 (0)
 -->
<!-- Title: EKSArchitecture Pages: 1 -->
<svg width="2800pt" height="1380pt"
 viewBox="0.00 0.00 2800.00 1379.51" xmlns="http://www.w3.org/2000/svg" xmlns:xlink="http://www.w3.org/1999/xlink">
<g id="graph0" class="graph" transform="scale(1 1) rotate(0) translate(4 1375.51)">
<title>EKSArchitecture</title>
<polygon fill="white" stroke="transparent" points="-4,4 -4,-1375.51 2796,-1375.51 2796,4 -4,4"/>
<g id="clust1" class="cluster">
<title>cluster_external</title>
<polygon fill="#e8e8e8" stroke="#666666" points="8,-765.51 8,-1285.14 300,-1285.14 300,-765.51 8,-765.51"/>
<text text-anchor="middle" x="154" y="-1269.94" font-family="Helvetica,sans-Serif" font-size="14.00">External Actors</text>
</g>
<g id="clust2" class="cluster">
<title>cluster_aws</title>
<polygon fill="#f5f5f5" stroke="#232f3e" stroke-width="2" points="308,-98 308,-1363.51 2784,-1363.51 2784,-98 308,-98"/>
<text text-anchor="middle" x="1546" y="-1346.71" font-family="Helvetica,sans-Serif" font-size="16.00" fill="#232f3e">AWS Cloud (eu&#45;west&#45;1)</text>
</g>
<g id="clust3" class="cluster">
<title>cluster_aws_managed</title>
<polygon fill="#232f3e" stroke="#232f3e" stroke-width="2" points="316,-1051.51 316,-1141.51 612,-1141.51 612,-1051.51 316,-1051.51"/>
<text text-anchor="middle" x="464" y="-1129.51" font-family="Helvetica,sans-Serif" font-size="10.00" fill="white">AWS Managed Services</text>
<text text-anchor="middle" x="464" y="-1118.51" font-family="Helvetica,sans-Serif" font-size="10.00" fill="white">(fully managed by AWS, no infrastructure to maintain)</text>
</g>
<g id="clust4" class="cluster">
<title>cluster_vpc</title>
<polygon fill="#d4edda" stroke="#28a745" stroke-width="2" points="624,-106 624,-1329.51 2470,-1329.51 2470,-106 624,-106"/>
<text text-anchor="middle" x="1547" y="-1315.91" font-family="Helvetica,sans-Serif" font-size="12.00" fill="#232f3e">VPC: 192.168.0.0/16</text>
<text text-anchor="middle" x="1547" y="-1302.91" font-family="Helvetica,sans-Serif" font-size="12.00" fill="#232f3e">(isolated virtual network for all cluster resources)</text>
</g>
<g id="clust5" class="cluster">
<title>cluster_public</title>
<polygon fill="#cce5ff" stroke="#0066cc" stroke-width="2" points="1740,-443.26 1740,-1287.51 2140,-1287.51 2140,-443.26 1740,-443.26"/>
<text text-anchor="middle" x="1940" y="-1275.51" font-family="Helvetica,sans-Serif" font-size="10.00" fill="#232f3e">Public Subnets</text>
<text text-anchor="middle" x="1940" y="-1264.51" font-family="Helvetica,sans-Serif" font-size="10.00" fill="#232f3e">(directly accessible from internet, hosts load balancers)</text>
</g>
<g id="clust6" class="cluster">
<title>cluster_private</title>
<polygon fill="#f5c6cb" stroke="#721c24" stroke-width="2" points="1154,-114 1154,-1287.51 1732,-1287.51 1732,-114 1154,-114"/>
<text text-anchor="middle" x="1443" y="-1275.51" font-family="Helvetica,sans-Serif" font-size="10.00" fill="#232f3e">Private Subnets</text>
<text text-anchor="middle" x="1443" y="-1264.51" font-family="Helvetica,sans-Serif" font-size="10.00" fill="#232f3e">(no direct internet access, protected worker nodes)</text>
</g>
<g id="clust7" class="cluster">
<title>cluster_nodegroup</title>
<polygon fill="#e2e3e5" stroke="#6c757d" stroke-width="2" points="1162,-122 1162,-1007.51 1465,-1007.51 1465,-122 1162,-122"/>
<text text-anchor="middle" x="1313.5" y="-995.51" font-family="Helvetica,sans-Serif" font-size="10.00" fill="#232f3e">Node Group: students</text>
<text text-anchor="middle" x="1313.5" y="-984.51" font-family="Helvetica,sans-Serif" font-size="10.00" fill="#232f3e">(EC2 instances running Kubernetes, auto&#45;scales 1&#45;3 nodes)</text>
</g>
<g id="clust8" class="cluster">
<title>cluster_app</title>
<polygon fill="#d1ecf1" stroke="#0c5460" stroke-width="2" points="1473,-232 1473,-411.26 1724,-411.26 1724,-232 1473,-232"/>
<text text-anchor="middle" x="1598.5" y="-399.26" font-family="Helvetica,sans-Serif" font-size="10.00" fill="#232f3e">Namespace: hello&#45;world</text>
<text text-anchor="middle" x="1598.5" y="-388.26" font-family="Helvetica,sans-Serif" font-size="10.00" fill="#232f3e">(Kubernetes logical isolation for the application)</text>
</g>
<g id="clust9" class="cluster">
<title>cluster_addons</title>
<polygon fill="#e9ecef" stroke="#28a745" stroke-width="2" points="632,-1055.51 632,-1137.51 1146,-1137.51 1146,-1055.51 632,-1055.51"/>
<text text-anchor="middle" x="889" y="-1125.51" font-family="Helvetica,sans-Serif" font-size="10.00" fill="#232f3e">EKS Add&#45;ons</text>
<text text-anchor="middle" x="889" y="-1114.51" font-family="Helvetica,sans-Serif" font-size="10.00" fill="#232f3e">(AWS&#45;managed Kubernetes components running on nodes)</text>
</g>
<g id="clust10" class="cluster">
<title>cluster_cfn</title>
<polygon fill="#f8f9fa" stroke="#232f3e" stroke-width="2" points="2478,-1039.51 2478,-1311.51 2750,-1311.51 2750,-1039.51 2478,-1039.51"/>
<text text-anchor="middle" x="2614" y="-1298.71" font-family="Helvetica,sans-Serif" font-size="11.00" fill="#232f3e">CloudFormation Stacks</text>
<text text-anchor="middle" x="2614" y="-1286.71" font-family="Helvetica,sans-Serif" font-size="11.00" fill="#232f3e">(generated by eksctl from eksctl&#45;cluster.yaml)</text>
</g>
<g id="clust11" class="cluster">
<title>cluster_legend</title>
<polygon fill="#ffffff" stroke="#333333" stroke-width="2" points="334,-8 334,-81 1820,-81 1820,-8 334,-8"/>
<text text-anchor="middle" x="1077" y="-67.4" font-family="Helvetica,sans-Serif" font-size="12.00">Connection Types Legend</text>
</g>
<!-- github -->
<g id="node1" class="node">
<title>github</title>
<path fill="#24292e" stroke="black" d="M102,-1249.51C102,-1249.51 28,-1249.51 28,-1249.51 22,-1249.51 16,-1243.51 16,-1237.51 16,-1237.51 16,-1225.51 16,-1225.51 16,-1219.51 22,-1213.51 28,-1213.51 28,-1213.51 102,-1213.51 102,-1213.51 108,-1213.51 114,-1219.51 114,-1225.51 114,-1225.51 114,-1237.51 114,-1237.51 114,-1243.51 108,-1249.51 102,-1249.51"/>
<text text-anchor="middle" x="65" y="-1234.71" font-family="Helvetica,sans-Serif" font-size="11.00" fill="white">GitHub Actions</text>
<text text-anchor="middle" x="65" y="-1222.71" font-family="Helvetica,sans-Serif" font-size="11.00" fill="white">(CI/CD)</text>
</g>
<!-- ecr -->
<g id="node4" class="node">
<title>ecr</title>
<path fill="#3b48cc" stroke="black" d="M440,-1099.51C440,-1099.51 336,-1099.51 336,-1099.51 330,-1099.51 324,-1093.51 324,-1087.51 324,-1087.51 324,-1075.51 324,-1075.51 324,-1069.51 330,-1063.51 336,-1063.51 336,-1063.51 440,-1063.51 440,-1063.51 446,-1063.51 452,-1069.51 452,-1075.51 452,-1075.51 452,-1087.51 452,-1087.51 452,-1093.51 446,-1099.51 440,-1099.51"/>
<text text-anchor="middle" x="388" y="-1084.71" font-family="Helvetica,sans-Serif" font-size="11.00" fill="white">ghcr.io</text>
<text text-anchor="middle" x="388" y="-1072.71" font-family="Helvetica,sans-Serif" font-size="11.00" fill="white">(Container Registry)</text>
</g>
<!-- github&#45;&gt;ecr -->
<g id="edge17" class="edge">
<title>github&#45;&gt;ecr</title>
<path fill="none" stroke="#6f42c1" stroke-width="2" d="M94.58,-1213.29C112.53,-1202.84 132,-1191.51 132,-1191.51 132,-1191.51 320,-1141.51 320,-1141.51 320,-1141.51 341.82,-1122.58 360.74,-1106.16"/>
<polygon fill="#6f42c1" stroke="#6f42c1" stroke-width="2" points="363.07,-1108.77 368.33,-1099.58 358.48,-1103.49 363.07,-1108.77"/>
<text text-anchor="middle" x="315" y="-1157.31" font-family="Helvetica,sans-Serif" font-size="9.00" fill="#6f42c1">push image</text>
</g>
<!-- eks_control -->
<g id="node5" class="node">
<title>eks_control</title>
<polygon fill="#ff9900" stroke="black" points="603.5,-1103.51 492.5,-1103.51 488.5,-1099.51 488.5,-1059.51 599.5,-1059.51 603.5,-1063.51 603.5,-1103.51"/>
<polyline fill="none" stroke="black" points="599.5,-1099.51 488.5,-1099.51 "/>
<polyline fill="none" stroke="black" points="599.5,-1099.51 599.5,-1059.51 "/>
<polyline fill="none" stroke="black" points="599.5,-1099.51 603.5,-1103.51 "/>
<text text-anchor="middle" x="546" y="-1090.71" font-family="Helvetica,sans-Serif" font-size="11.00" fill="white">EKS Control Plane</text>
<text text-anchor="middle" x="546" y="-1078.71" font-family="Helvetica,sans-Serif" font-size="11.00" fill="white">esade&#45;teaching</text>
<text text-anchor="middle" x="546" y="-1066.71" font-family="Helvetica,sans-Serif" font-size="11.00" fill="white">K8s 1.32</text>
</g>
<!-- github&#45;&gt;eks_control -->
<g id="edge18" class="edge">
<title>github&#45;&gt;eks_control</title>
<path fill="none" stroke="#6f42c1" stroke-width="2" stroke-dasharray="5,2" d="M94.58,-1213.29C112.53,-1202.84 132,-1191.51 132,-1191.51 132,-1191.51 316,-1169.51 316,-1169.51 316,-1169.51 485,-1141.51 485,-1141.51 485,-1141.51 500.88,-1126.15 516.44,-1111.1"/>
<polygon fill="#6f42c1" stroke="#6f42c1" stroke-width="2" points="519.22,-1113.28 523.98,-1103.81 514.36,-1108.25 519.22,-1113.28"/>
<text text-anchor="middle" x="450.5" y="-1157.31" font-family="Helvetica,sans-Serif" font-size="9.00" fill="#6f42c1">deploy</text>
</g>
<!-- users -->
<g id="node2" class="node">
<title>users</title>
<ellipse fill="#f0f0f0" stroke="black" cx="238" cy="-791.51" rx="53.54" ry="18"/>
<text text-anchor="middle" x="238" y="-788.71" font-family="Helvetica,sans-Serif" font-size="11.00">Users/Clients</text>
</g>
<!-- igw -->
<g id="node6" class="node">
<title>igw</title>
<path fill="#f8d7da" stroke="#dc3545" d="M2252.21,-664.26C2252.21,-664.26 2158.79,-618.77 2158.79,-618.77 2153.39,-616.14 2153.39,-610.88 2158.79,-608.26 2158.79,-608.26 2252.21,-562.77 2252.21,-562.77 2257.61,-560.14 2268.39,-560.14 2273.79,-562.77 2273.79,-562.77 2367.21,-608.26 2367.21,-608.26 2372.61,-610.88 2372.61,-616.14 2367.21,-618.77 2367.21,-618.77 2273.79,-664.26 2273.79,-664.26 2268.39,-666.88 2257.61,-666.88 2252.21,-664.26"/>
<text text-anchor="middle" x="2263" y="-628.71" font-family="Helvetica,sans-Serif" font-size="11.00">Internet Gateway</text>
<text text-anchor="middle" x="2263" y="-616.71" font-family="Helvetica,sans-Serif" font-size="11.00">━━━━━━━━━━━━━━</text>
<text text-anchor="middle" x="2263" y="-604.71" font-family="Helvetica,sans-Serif" font-size="11.00">Entry/exit point</text>
<text text-anchor="middle" x="2263" y="-592.71" font-family="Helvetica,sans-Serif" font-size="11.00">for internet traffic</text>
</g>
<!-- users&#45;&gt;igw -->
<g id="edge9" class="edge">
<title>users&#45;&gt;igw</title>
<path fill="none" stroke="#22863a" stroke-width="2.5" d="M284.23,-782.3C384.9,-764.41 615,-723.51 615,-723.51 615,-723.51 2144,-669.51 2144,-669.51 2144,-669.51 2168.77,-658.06 2195.71,-645.61"/>
<polygon fill="#22863a" stroke="#22863a" stroke-width="2.5" points="2197.29,-648.74 2204.89,-641.37 2194.35,-642.39 2197.29,-648.74"/>
<text text-anchor="middle" x="1527.5" y="-694.31" font-family="Helvetica,sans-Serif" font-size="9.00" fill="#22863a">HTTP</text>
</g>
<!-- developer -->
<g id="node3" class="node">
<title>developer</title>
<ellipse fill="#f0f0f0" stroke="black" cx="221" cy="-1231.51" rx="71.34" ry="22.76"/>
<text text-anchor="middle" x="221" y="-1234.71" font-family="Helvetica,sans-Serif" font-size="11.00">Developer</text>
<text text-anchor="middle" x="221" y="-1222.71" font-family="Helvetica,sans-Serif" font-size="11.00">(kubectl/eksctl)</text>
</g>
<!-- developer&#45;&gt;eks_control -->
<g id="edge14" class="edge">
<title>developer&#45;&gt;eks_control</title>
<path fill="none" stroke="#0366d6" stroke-width="2" stroke-dasharray="5,2" d="M275.68,-1216.9C347.88,-1198.92 466,-1169.51 466,-1169.51 466,-1169.51 496.35,-1136.5 519.67,-1111.15"/>
<polygon fill="#0366d6" stroke="#0366d6" stroke-width="2" points="522.44,-1113.3 526.63,-1103.57 517.29,-1108.56 522.44,-1113.3"/>
<text text-anchor="middle" x="500" y="-1162.31" font-family="Helvetica,sans-Serif" font-size="9.00" fill="#0366d6">kubectl</text>
<text text-anchor="middle" x="500" y="-1152.31" font-family="Helvetica,sans-Serif" font-size="9.00" fill="#0366d6">eksctl</text>
</g>
<!-- node1 -->
<g id="node15" class="node">
<title>node1</title>
<polygon fill="#ffc107" stroke="black" points="1295.5,-969.51 1174.5,-969.51 1170.5,-965.51 1170.5,-913.51 1291.5,-913.51 1295.5,-917.51 1295.5,-969.51"/>
<polyline fill="none" stroke="black" points="1291.5,-965.51 1170.5,-965.51 "/>
<polyline fill="none" stroke="black" points="1291.5,-965.51 1291.5,-913.51 "/>
<polyline fill="none" stroke="black" points="1291.5,-965.51 1295.5,-969.51 "/>
<text text-anchor="middle" x="1233" y="-956.71" font-family="Helvetica,sans-Serif" font-size="11.00">Node 1</text>
<text text-anchor="middle" x="1233" y="-944.71" font-family="Helvetica,sans-Serif" font-size="11.00">t3.medium</text>
<text text-anchor="middle" x="1233" y="-932.71" font-family="Helvetica,sans-Serif" font-size="11.00">Amazon Linux 2023</text>
<text text-anchor="middle" x="1233" y="-920.71" font-family="Helvetica,sans-Serif" font-size="11.00">containerd 2.1.5</text>
</g>
<!-- ecr&#45;&gt;node1 -->
<g id="edge19" class="edge">
<title>ecr&#45;&gt;node1</title>
<path fill="none" stroke="#e36209" stroke-width="1.5" stroke-dasharray="5,2" d="M452.21,-1069.31C521.79,-1057.17 623,-1039.51 623,-1039.51 623,-1039.51 805,-1015.51 805,-1015.51 805,-1015.51 1167,-1007.51 1167,-1007.51 1167,-1007.51 1182.27,-992.47 1198.12,-976.86"/>
<polygon fill="#e36209" stroke="#e36209" stroke-width="1.5" points="1200.72,-979.21 1205.39,-969.7 1195.81,-974.22 1200.72,-979.21"/>
<text text-anchor="middle" x="829" y="-1018.31" font-family="Helvetica,sans-Serif" font-size="9.00" fill="#e36209">pull image</text>
</g>
<!-- node2 -->
<g id="node16" class="node">
<title>node2</title>
<polygon fill="#ffc107" stroke="black" points="1456.5,-186 1335.5,-186 1331.5,-182 1331.5,-130 1452.5,-130 1456.5,-134 1456.5,-186"/>
<polyline fill="none" stroke="black" points="1452.5,-182 1331.5,-182 "/>
<polyline fill="none" stroke="black" points="1452.5,-182 1452.5,-130 "/>
<polyline fill="none" stroke="black" points="1452.5,-182 1456.5,-186 "/>
<text text-anchor="middle" x="1394" y="-173.2" font-family="Helvetica,sans-Serif" font-size="11.00">Node 2</text>
<text text-anchor="middle" x="1394" y="-161.2" font-family="Helvetica,sans-Serif" font-size="11.00">t3.medium</text>
<text text-anchor="middle" x="1394" y="-149.2" font-family="Helvetica,sans-Serif" font-size="11.00">Amazon Linux 2023</text>
<text text-anchor="middle" x="1394" y="-137.2" font-family="Helvetica,sans-Serif" font-size="11.00">containerd 2.1.5</text>
</g>
<!-- ecr&#45;&gt;node2 -->
<g id="edge20" class="edge">
<title>ecr&#45;&gt;node2</title>
<path fill="none" stroke="#e36209" stroke-width="1.5" stroke-dasharray="5,2" d="M391.11,-1063.41C394.04,-1047.27 398,-1025.51 398,-1025.51 398,-1025.51 403,-942.51 403,-942.51 403,-942.51 403,-942.51 403,-257 403,-257 588,-232 588,-232 588,-232 1123.28,-183.52 1321.4,-165.58"/>
<polygon fill="#e36209" stroke="#e36209" stroke-width="1.5" points="1321.78,-169.06 1331.43,-164.67 1321.15,-162.08 1321.78,-169.06"/>
</g>
<!-- eks_control&#45;&gt;node1 -->
<g id="edge15" class="edge">
<title>eks_control&#45;&gt;node1</title>
<path fill="none" stroke="#0366d6" stroke-width="1.5" stroke-dasharray="5,2" d="M585.85,-1059.29C604.64,-1049.29 623,-1039.51 623,-1039.51 623,-1039.51 1167,-1007.51 1167,-1007.51 1167,-1007.51 1182.27,-992.47 1198.12,-976.86"/>
<polygon fill="#0366d6" stroke="#0366d6" stroke-width="1.5" points="1200.72,-979.21 1205.39,-969.7 1195.81,-974.22 1200.72,-979.21"/>
<text text-anchor="middle" x="1038" y="-1018.31" font-family="Helvetica,sans-Serif" font-size="9.00" fill="#0366d6">kubelet</text>
</g>
<!-- eks_control&#45;&gt;node2 -->
<g id="edge16" class="edge">
<title>eks_control&#45;&gt;node2</title>
<path fill="none" stroke="#0366d6" stroke-width="1.5" stroke-dasharray="5,2" d="M564.04,-1059.4C577.29,-1043.89 593,-1025.51 593,-1025.51 593,-1025.51 598,-942.51 598,-942.51 598,-942.51 598,-942.51 598,-257 598,-257 1124.77,-192.15 1321.26,-167.96"/>
<polygon fill="#0366d6" stroke="#0366d6" stroke-width="1.5" points="1321.71,-171.43 1331.21,-166.73 1320.85,-164.48 1321.71,-171.43"/>
<text text-anchor="middle" x="615" y="-528.31" font-family="Helvetica,sans-Serif" font-size="9.00" fill="#0366d6">kubelet</text>
</g>
<!-- elb -->
<g id="node11" class="node">
<title>elb</title>
<path fill="#ff9900" stroke="black" d="M2011.7,-483.87C2011.7,-483.87 1991,-497.16 1991,-497.16 1985.95,-500.4 1974.9,-503.64 1968.9,-503.64 1968.9,-503.64 1911.1,-503.64 1911.1,-503.64 1905.1,-503.64 1894.05,-500.4 1889,-497.16 1889,-497.16 1868.3,-483.87 1868.3,-483.87 1863.25,-480.63 1863.25,-474.14 1868.3,-470.9 1868.3,-470.9 1889,-457.61 1889,-457.61 1894.05,-454.37 1905.1,-451.13 1911.1,-451.13 1911.1,-451.13 1968.9,-451.13 1968.9,-451.13 1974.9,-451.13 1985.95,-454.37 1991,-457.61 1991,-457.61 2011.7,-470.9 2011.7,-470.9 2016.75,-474.14 2016.75,-480.63 2011.7,-483.87"/>
<text text-anchor="middle" x="1940" y="-480.58" font-family="Helvetica,sans-Serif" font-size="11.00" fill="white">AWS ELB</text>
<text text-anchor="middle" x="1940" y="-468.58" font-family="Helvetica,sans-Serif" font-size="11.00" fill="white">(LoadBalancer)</text>
</g>
<!-- igw&#45;&gt;elb -->
<g id="edge10" class="edge">
<title>igw&#45;&gt;elb</title>
<path fill="none" stroke="#22863a" stroke-width="2.5" d="M2204.89,-585.66C2174.69,-571.69 2144,-557.51 2144,-557.51 2144,-557.51 2059.82,-524.86 1999.61,-501.5"/>
<polygon fill="#22863a" stroke="#22863a" stroke-width="2.5" points="2000.75,-498.2 1990.17,-497.84 1998.22,-504.72 2000.75,-498.2"/>
</g>
<!-- nat -->
<g id="node7" class="node">
<title>nat</title>
<path fill="#fff3cd" stroke="#856404" d="M2293.99,-854.74C2293.99,-854.74 2159.01,-796.28 2159.01,-796.28 2153.51,-793.9 2153.51,-789.13 2159.01,-786.74 2159.01,-786.74 2293.99,-728.28 2293.99,-728.28 2299.49,-725.9 2310.51,-725.9 2316.01,-728.28 2316.01,-728.28 2450.99,-786.74 2450.99,-786.74 2456.49,-789.13 2456.49,-793.9 2450.99,-796.28 2450.99,-796.28 2316.01,-854.74 2316.01,-854.74 2310.51,-857.13 2299.49,-857.13 2293.99,-854.74"/>
<text text-anchor="middle" x="2305" y="-812.71" font-family="Helvetica,sans-Serif" font-size="11.00">NAT Gateway</text>
<text text-anchor="middle" x="2305" y="-800.71" font-family="Helvetica,sans-Serif" font-size="11.00">━━━━━━━━━━━━━━</text>
<text text-anchor="middle" x="2305" y="-788.71" font-family="Helvetica,sans-Serif" font-size="11.00">Allows private subnets</text>
<text text-anchor="middle" x="2305" y="-776.71" font-family="Helvetica,sans-Serif" font-size="11.00">outbound internet access</text>
<text text-anchor="middle" x="2305" y="-764.71" font-family="Helvetica,sans-Serif" font-size="11.00">(no inbound)</text>
</g>
<!-- nat&#45;&gt;igw -->
<g id="edge23" class="edge">
<title>nat&#45;&gt;igw</title>
<path fill="none" stroke="#b08800" stroke-width="1.5" stroke-dasharray="5,2" d="M2290.43,-729.45C2286.11,-711.35 2281.39,-691.58 2277.1,-673.61"/>
<polygon fill="#b08800" stroke="#b08800" stroke-width="1.5" points="2280.5,-672.75 2274.77,-663.84 2273.69,-674.38 2280.5,-672.75"/>
</g>
<!-- pub_1a -->
<g id="node8" class="node">
<title>pub_1a</title>
<polygon fill="#e8f4fd" stroke="black" points="2132,-1249.51 2129,-1253.51 2108,-1253.51 2105,-1249.51 2026,-1249.51 2026,-1213.51 2132,-1213.51 2132,-1249.51"/>
<text text-anchor="middle" x="2079" y="-1234.71" font-family="Helvetica,sans-Serif" font-size="11.00">eu&#45;west&#45;1a</text>
<text text-anchor="middle" x="2079" y="-1222.71" font-family="Helvetica,sans-Serif" font-size="11.00">192.168.64.0/19</text>
</g>
<!-- pub_1b -->
<g id="node9" class="node">
<title>pub_1b</title>
<polygon fill="#e8f4fd" stroke="black" points="1989.5,-1249.51 1986.5,-1253.51 1965.5,-1253.51 1962.5,-1249.51 1890.5,-1249.51 1890.5,-1213.51 1989.5,-1213.51 1989.5,-1249.51"/>
<text text-anchor="middle" x="1940" y="-1234.71" font-family="Helvetica,sans-Serif" font-size="11.00">eu&#45;west&#45;1b</text>
<text text-anchor="middle" x="1940" y="-1222.71" font-family="Helvetica,sans-Serif" font-size="11.00">192.168.0.0/19</text>
</g>
<!-- pub_1c -->
<g id="node10" class="node">
<title>pub_1c</title>
<polygon fill="#e8f4fd" stroke="black" points="1854,-1249.51 1851,-1253.51 1830,-1253.51 1827,-1249.51 1748,-1249.51 1748,-1213.51 1854,-1213.51 1854,-1249.51"/>
<text text-anchor="middle" x="1801" y="-1234.71" font-family="Helvetica,sans-Serif" font-size="11.00">eu&#45;west&#45;1c</text>
<text text-anchor="middle" x="1801" y="-1222.71" font-family="Helvetica,sans-Serif" font-size="11.00">192.168.32.0/19</text>
</g>
<!-- svc -->
<g id="node19" class="node">
<title>svc</title>
<path fill="#6f42c1" stroke="black" d="M1704.7,-353.61C1704.7,-353.61 1684,-366.9 1684,-366.9 1678.95,-370.14 1667.9,-373.38 1661.9,-373.38 1661.9,-373.38 1604.1,-373.38 1604.1,-373.38 1598.1,-373.38 1587.05,-370.14 1582,-366.9 1582,-366.9 1561.3,-353.61 1561.3,-353.61 1556.25,-350.37 1556.25,-343.89 1561.3,-340.65 1561.3,-340.65 1582,-327.35 1582,-327.35 1587.05,-324.11 1598.1,-320.87 1604.1,-320.87 1604.1,-320.87 1661.9,-320.87 1661.9,-320.87 1667.9,-320.87 1678.95,-324.11 1684,-327.35 1684,-327.35 1704.7,-340.65 1704.7,-340.65 1709.75,-343.89 1709.75,-350.37 1704.7,-353.61"/>
<text text-anchor="middle" x="1633" y="-350.33" font-family="Helvetica,sans-Serif" font-size="11.00" fill="white">Service</text>
<text text-anchor="middle" x="1633" y="-338.33" font-family="Helvetica,sans-Serif" font-size="11.00" fill="white">(LoadBalancer)</text>
</g>
<!-- elb&#45;&gt;svc -->
<g id="edge11" class="edge">
<title>elb&#45;&gt;svc</title>
<path fill="none" stroke="#22863a" stroke-width="2.5" d="M1891.35,-456.06C1836.98,-433.35 1748.98,-396.58 1691.06,-372.38"/>
<polygon fill="#22863a" stroke="#22863a" stroke-width="2.5" points="1692.25,-369.09 1681.67,-368.46 1689.55,-375.55 1692.25,-369.09"/>
<text text-anchor="middle" x="1837" y="-422.06" font-family="Helvetica,sans-Serif" font-size="9.00" fill="#22863a">traffic</text>
</g>
<!-- priv_1a -->
<g id="node12" class="node">
<title>priv_1a</title>
<polygon fill="#fce4e6" stroke="black" points="1693.5,-1249.51 1690.5,-1253.51 1669.5,-1253.51 1666.5,-1249.51 1580.5,-1249.51 1580.5,-1213.51 1693.5,-1213.51 1693.5,-1249.51"/>
<text text-anchor="middle" x="1637" y="-1234.71" font-family="Helvetica,sans-Serif" font-size="11.00">eu&#45;west&#45;1a</text>
<text text-anchor="middle" x="1637" y="-1222.71" font-family="Helvetica,sans-Serif" font-size="11.00">192.168.160.0/19</text>
</g>
<!-- priv_1b -->
<g id="node13" class="node">
<title>priv_1b</title>
<polygon fill="#fce4e6" stroke="black" points="1526,-1249.51 1523,-1253.51 1502,-1253.51 1499,-1249.51 1420,-1249.51 1420,-1213.51 1526,-1213.51 1526,-1249.51"/>
<text text-anchor="middle" x="1473" y="-1234.71" font-family="Helvetica,sans-Serif" font-size="11.00">eu&#45;west&#45;1b</text>
<text text-anchor="middle" x="1473" y="-1222.71" font-family="Helvetica,sans-Serif" font-size="11.00">192.168.96.0/19</text>
</g>
<!-- priv_1c -->
<g id="node14" class="node">
<title>priv_1c</title>
<polygon fill="#fce4e6" stroke="black" points="1347.5,-1249.51 1344.5,-1253.51 1323.5,-1253.51 1320.5,-1249.51 1234.5,-1249.51 1234.5,-1213.51 1347.5,-1213.51 1347.5,-1249.51"/>
<text text-anchor="middle" x="1291" y="-1234.71" font-family="Helvetica,sans-Serif" font-size="11.00">eu&#45;west&#45;1c</text>
<text text-anchor="middle" x="1291" y="-1222.71" font-family="Helvetica,sans-Serif" font-size="11.00">192.168.128.0/19</text>
</g>
<!-- node1&#45;&gt;nat -->
<g id="edge21" class="edge">
<title>node1&#45;&gt;nat</title>
<path fill="none" stroke="#b08800" stroke-width="1.5" stroke-dasharray="5,2" d="M1295.62,-934.94C1501.44,-916.64 2144,-859.51 2144,-859.51 2144,-859.51 2179.01,-844.94 2216.38,-829.39"/>
<polygon fill="#b08800" stroke="#b08800" stroke-width="1.5" points="2218.03,-832.5 2225.91,-825.42 2215.34,-826.03 2218.03,-832.5"/>
<text text-anchor="middle" x="1896.5" y="-884.31" font-family="Helvetica,sans-Serif" font-size="9.00" fill="#b08800">outbound</text>
</g>
<!-- node2&#45;&gt;nat -->
<g id="edge22" class="edge">
<title>node2&#45;&gt;nat</title>
<path fill="none" stroke="#b08800" stroke-width="1.5" stroke-dasharray="5,2" d="M1456.79,-162.03C1678.3,-172.71 2410,-208 2410,-208 2410,-208 2415,-257 2415,-257 2415,-614.51 2415,-614.51 2415,-614.51 2415,-614.51 2410,-701.51 2410,-701.51 2410,-701.51 2388.63,-719.63 2365.17,-739.51"/>
<polygon fill="#b08800" stroke="#b08800" stroke-width="1.5" points="2362.87,-736.88 2357.5,-746.01 2367.39,-742.22 2362.87,-736.88"/>
</g>
<!-- leg1a -->
<g id="node26" class="node">
<title>leg1a</title>
<ellipse fill="black" stroke="black" cx="1394" cy="-34" rx="3.6" ry="3.6"/>
</g>
<!-- node2&#45;&gt;leg1a -->
<!-- pod1 -->
<g id="node17" class="node">
<title>pod1</title>
<path fill="#28a745" stroke="black" d="M1546.5,-276C1546.5,-276 1493.5,-276 1493.5,-276 1487.5,-276 1481.5,-270 1481.5,-264 1481.5,-264 1481.5,-252 1481.5,-252 1481.5,-246 1487.5,-240 1493.5,-240 1493.5,-240 1546.5,-240 1546.5,-240 1552.5,-240 1558.5,-246 1558.5,-252 1558.5,-252 1558.5,-264 1558.5,-264 1558.5,-270 1552.5,-276 1546.5,-276"/>
<text text-anchor="middle" x="1520" y="-261.2" font-family="Helvetica,sans-Serif" font-size="11.00" fill="white">Pod 1</text>
<text text-anchor="middle" x="1520" y="-249.2" font-family="Helvetica,sans-Serif" font-size="11.00" fill="white">hello&#45;world</text>
</g>
<!-- pod1&#45;&gt;node1 -->
<g id="edge24" class="edge">
<title>pod1&#45;&gt;node1</title>
<path fill="none" stroke="#24292e" stroke-width="2.5" stroke-dasharray="1,5" d="M1481.3,-274.67C1479.24,-275.5 1478,-276 1478,-276 1478,-276 1341,-321 1341,-321 1341,-321 1336,-346.13 1336,-346.13 1336,-792.51 1336,-792.51 1336,-792.51 1336,-792.51 1331,-891.51 1331,-891.51 1331,-891.51 1309.82,-902.1 1287.16,-913.43"/>
<text text-anchor="middle" x="1353.5" y="-528.31" font-family="Helvetica,sans-Serif" font-size="9.00" fill="#24292e">runs on</text>
</g>
<!-- pod2 -->
<g id="node18" class="node">
<title>pod2</title>
<path fill="#28a745" stroke="black" d="M1659.5,-276C1659.5,-276 1606.5,-276 1606.5,-276 1600.5,-276 1594.5,-270 1594.5,-264 1594.5,-264 1594.5,-252 1594.5,-252 1594.5,-246 1600.5,-240 1606.5,-240 1606.5,-240 1659.5,-240 1659.5,-240 1665.5,-240 1671.5,-246 1671.5,-252 1671.5,-252 1671.5,-264 1671.5,-264 1671.5,-270 1665.5,-276 1659.5,-276"/>
<text text-anchor="middle" x="1633" y="-261.2" font-family="Helvetica,sans-Serif" font-size="11.00" fill="white">Pod 2</text>
<text text-anchor="middle" x="1633" y="-249.2" font-family="Helvetica,sans-Serif" font-size="11.00" fill="white">hello&#45;world</text>
</g>
<!-- pod2&#45;&gt;node2 -->
<g id="edge25" class="edge">
<title>pod2&#45;&gt;node2</title>
<path fill="none" stroke="#24292e" stroke-width="2.5" stroke-dasharray="1,5" d="M1604.29,-239.91C1596.91,-235.52 1591,-232 1591,-232 1591,-232 1514.29,-203.57 1456.6,-182.2"/>
<text text-anchor="middle" x="1565.5" y="-210.8" font-family="Helvetica,sans-Serif" font-size="9.00" fill="#24292e">runs on</text>
</g>
<!-- svc&#45;&gt;pod1 -->
<g id="edge12" class="edge">
<title>svc&#45;&gt;pod1</title>
<path fill="none" stroke="#22863a" stroke-width="2" d="M1600.32,-320.93C1584.59,-308.8 1565.84,-294.35 1550.42,-282.46"/>
<polygon fill="#22863a" stroke="#22863a" stroke-width="2" points="1552.29,-279.48 1542.23,-276.14 1548.02,-285.02 1552.29,-279.48"/>
</g>
<!-- svc&#45;&gt;pod2 -->
<g id="edge13" class="edge">
<title>svc&#45;&gt;pod2</title>
<path fill="none" stroke="#22863a" stroke-width="2" d="M1633,-320.93C1633,-310.03 1633,-297.27 1633,-286.16"/>
<polygon fill="#22863a" stroke="#22863a" stroke-width="2" points="1636.5,-286.14 1633,-276.14 1629.5,-286.14 1636.5,-286.14"/>
</g>
<!-- vpccni -->
<g id="node20" class="node">
<title>vpccni</title>
<polygon fill="#17a2b8" stroke="black" points="742,-1099.51 640,-1099.51 640,-1095.51 636,-1095.51 636,-1091.51 640,-1091.51 640,-1071.51 636,-1071.51 636,-1067.51 640,-1067.51 640,-1063.51 742,-1063.51 742,-1099.51"/>
<polyline fill="none" stroke="black" points="640,-1095.51 644,-1095.51 644,-1091.51 640,-1091.51 "/>
<polyline fill="none" stroke="black" points="640,-1071.51 644,-1071.51 644,-1067.51 640,-1067.51 "/>
<text text-anchor="middle" x="691" y="-1084.71" font-family="Helvetica,sans-Serif" font-size="11.00" fill="white">vpc&#45;cni</text>
<text text-anchor="middle" x="691" y="-1072.71" font-family="Helvetica,sans-Serif" font-size="11.00" fill="white">Pod Networking</text>
</g>
<!-- vpccni&#45;&gt;node1 -->
<!-- coredns -->
<g id="node21" class="node">
<title>coredns</title>
<polygon fill="#17a2b8" stroke="black" points="861.5,-1099.51 778.5,-1099.51 778.5,-1095.51 774.5,-1095.51 774.5,-1091.51 778.5,-1091.51 778.5,-1071.51 774.5,-1071.51 774.5,-1067.51 778.5,-1067.51 778.5,-1063.51 861.5,-1063.51 861.5,-1099.51"/>
<polyline fill="none" stroke="black" points="778.5,-1095.51 782.5,-1095.51 782.5,-1091.51 778.5,-1091.51 "/>
<polyline fill="none" stroke="black" points="778.5,-1071.51 782.5,-1071.51 782.5,-1067.51 778.5,-1067.51 "/>
<text text-anchor="middle" x="820" y="-1084.71" font-family="Helvetica,sans-Serif" font-size="11.00" fill="white">CoreDNS</text>
<text text-anchor="middle" x="820" y="-1072.71" font-family="Helvetica,sans-Serif" font-size="11.00" fill="white">Cluster DNS</text>
</g>
<!-- coredns&#45;&gt;node1 -->
<!-- kubeproxy -->
<g id="node22" class="node">
<title>kubeproxy</title>
<polygon fill="#17a2b8" stroke="black" points="990,-1099.51 898,-1099.51 898,-1095.51 894,-1095.51 894,-1091.51 898,-1091.51 898,-1071.51 894,-1071.51 894,-1067.51 898,-1067.51 898,-1063.51 990,-1063.51 990,-1099.51"/>
<polyline fill="none" stroke="black" points="898,-1095.51 902,-1095.51 902,-1091.51 898,-1091.51 "/>
<polyline fill="none" stroke="black" points="898,-1071.51 902,-1071.51 902,-1067.51 898,-1067.51 "/>
<text text-anchor="middle" x="944" y="-1084.71" font-family="Helvetica,sans-Serif" font-size="11.00" fill="white">kube&#45;proxy</text>
<text text-anchor="middle" x="944" y="-1072.71" font-family="Helvetica,sans-Serif" font-size="11.00" fill="white">Service Proxy</text>
</g>
<!-- kubeproxy&#45;&gt;node1 -->
<!-- metrics -->
<g id="node23" class="node">
<title>metrics</title>
<polygon fill="#17a2b8" stroke="black" points="1138,-1099.51 1026,-1099.51 1026,-1095.51 1022,-1095.51 1022,-1091.51 1026,-1091.51 1026,-1071.51 1022,-1071.51 1022,-1067.51 1026,-1067.51 1026,-1063.51 1138,-1063.51 1138,-1099.51"/>
<polyline fill="none" stroke="black" points="1026,-1095.51 1030,-1095.51 1030,-1091.51 1026,-1091.51 "/>
<polyline fill="none" stroke="black" points="1026,-1071.51 1030,-1071.51 1030,-1067.51 1026,-1067.51 "/>
<text text-anchor="middle" x="1082" y="-1084.71" font-family="Helvetica,sans-Serif" font-size="11.00" fill="white">metrics&#45;server</text>
<text text-anchor="middle" x="1082" y="-1072.71" font-family="Helvetica,sans-Serif" font-size="11.00" fill="white">Resource Metrics</text>
</g>
<!-- metrics&#45;&gt;node1 -->
<!-- cfn_cluster -->
<g id="node24" class="node">
<title>cfn_cluster</title>
<polygon fill="#ffc107" stroke="black" points="2658,-1271.51 2486,-1271.51 2486,-1191.51 2664,-1191.51 2664,-1265.51 2658,-1271.51"/>
<polyline fill="none" stroke="black" points="2658,-1271.51 2658,-1265.51 "/>
<polyline fill="none" stroke="black" points="2664,-1265.51 2658,-1265.51 "/>
<text text-anchor="middle" x="2575" y="-1258.71" font-family="Helvetica,sans-Serif" font-size="11.00">eksctl&#45;esade&#45;teaching&#45;cluster</text>
<text text-anchor="middle" x="2575" y="-1246.71" font-family="Helvetica,sans-Serif" font-size="11.00">━━━━━━━━━━━━━━━━━━━━━━</text>
<text text-anchor="middle" x="2575" y="-1234.71" font-family="Helvetica,sans-Serif" font-size="11.00">Source: metadata section</text>
<text text-anchor="middle" x="2575" y="-1222.71" font-family="Helvetica,sans-Serif" font-size="11.00">━━━━━━━━━━━━━━━━━━━━━━</text>
<text text-anchor="middle" x="2575" y="-1210.71" font-family="Helvetica,sans-Serif" font-size="11.00">VPC, Control Plane, IAM,</text>
<text text-anchor="middle" x="2575" y="-1198.71" font-family="Helvetica,sans-Serif" font-size="11.00">Subnets, Gateways</text>
</g>
<!-- cfn_cluster&#45;&gt;eks_control -->
<g id="edge26" class="edge">
<title>cfn_cluster&#45;&gt;eks_control</title>
<path fill="none" stroke="#586069" stroke-width="2" stroke-dasharray="1,5" d="M2526.28,-1191.44C2500.45,-1170.72 2474,-1149.51 2474,-1149.51 2474,-1149.51 623,-1141.51 623,-1141.51 623,-1141.51 602.03,-1125.44 581.98,-1110.08"/>
<polygon fill="#586069" stroke="#586069" stroke-width="2" points="583.87,-1107.12 573.8,-1103.81 579.61,-1112.67 583.87,-1107.12"/>
<text text-anchor="middle" x="2515" y="-1157.31" font-family="Helvetica,sans-Serif" font-size="9.00" fill="#586069">creates</text>
</g>
<!-- cfn_cluster&#45;&gt;igw -->
<g id="edge27" class="edge">
<title>cfn_cluster&#45;&gt;igw</title>
<path fill="none" stroke="#586069" stroke-width="2" stroke-dasharray="1,5" d="M2627.81,-1191.43C2687.06,-1147.58 2775,-1082.51 2775,-1082.51 2775,-1082.51 2775,-1082.51 2775,-790.51 2775,-790.51 2481.58,-689.65 2338.99,-640.63"/>
<polygon fill="#586069" stroke="#586069" stroke-width="2" points="2340,-637.28 2329.41,-637.34 2337.73,-643.9 2340,-637.28"/>
</g>
<!-- cfn_cluster&#45;&gt;nat -->
<g id="edge28" class="edge">
<title>cfn_cluster&#45;&gt;nat</title>
<path fill="none" stroke="#586069" stroke-width="2" stroke-dasharray="1,5" d="M2560.35,-1191.49C2526.17,-1100.42 2444,-881.51 2444,-881.51 2444,-881.51 2410.42,-860.01 2376.26,-838.14"/>
<polygon fill="#586069" stroke="#586069" stroke-width="2" points="2377.9,-835.03 2367.59,-832.59 2374.12,-840.93 2377.9,-835.03"/>
</g>
<!-- cfn_nodegroup -->
<g id="node25" class="node">
<title>cfn_nodegroup</title>
<polygon fill="#ffc107" stroke="black" points="2731.5,-1115.51 2486.5,-1115.51 2486.5,-1047.51 2737.5,-1047.51 2737.5,-1109.51 2731.5,-1115.51"/>
<polyline fill="none" stroke="black" points="2731.5,-1115.51 2731.5,-1109.51 "/>
<polyline fill="none" stroke="black" points="2737.5,-1109.51 2731.5,-1109.51 "/>
<text text-anchor="middle" x="2612" y="-1102.71" font-family="Helvetica,sans-Serif" font-size="11.00">eksctl&#45;esade&#45;teaching&#45;nodegroup&#45;students</text>
<text text-anchor="middle" x="2612" y="-1090.71" font-family="Helvetica,sans-Serif" font-size="11.00">━━━━━━━━━━━━━━━━━━━━━━</text>
<text text-anchor="middle" x="2612" y="-1078.71" font-family="Helvetica,sans-Serif" font-size="11.00">Source: managedNodeGroups[0]</text>
<text text-anchor="middle" x="2612" y="-1066.71" font-family="Helvetica,sans-Serif" font-size="11.00">━━━━━━━━━━━━━━━━━━━━━━</text>
<text text-anchor="middle" x="2612" y="-1054.71" font-family="Helvetica,sans-Serif" font-size="11.00">EC2, ASG, Launch Template</text>
</g>
<!-- cfn_nodegroup&#45;&gt;node1 -->
<g id="edge29" class="edge">
<title>cfn_nodegroup&#45;&gt;node1</title>
<path fill="none" stroke="#586069" stroke-width="2" stroke-dasharray="1,5" d="M2540.26,-1047.44C2505.43,-1031.38 2471,-1015.51 2471,-1015.51 2471,-1015.51 1571.52,-962.47 1305.97,-946.81"/>
<polygon fill="#586069" stroke="#586069" stroke-width="2" points="1305.86,-943.3 1295.67,-946.21 1305.44,-950.29 1305.86,-943.3"/>
<text text-anchor="middle" x="2508" y="-1018.31" font-family="Helvetica,sans-Serif" font-size="9.00" fill="#586069">creates</text>
</g>
<!-- cfn_nodegroup&#45;&gt;node2 -->
<g id="edge30" class="edge">
<title>cfn_nodegroup&#45;&gt;node2</title>
<path fill="none" stroke="#586069" stroke-width="2" stroke-dasharray="1,5" d="M2606.97,-1047.46C2600.76,-1006.63 2591,-942.51 2591,-942.51 2591,-942.51 2591,-942.51 2591,-257 2591,-257 2586,-208 2586,-208 2586,-208 1725.81,-172.64 1466.88,-162"/>
<polygon fill="#586069" stroke="#586069" stroke-width="2" points="1466.96,-158.5 1456.83,-161.58 1466.67,-165.49 1466.96,-158.5"/>
</g>
<!-- leg1b -->
<g id="node27" class="node">
<title>leg1b</title>
<path fill="lightgrey" stroke="transparent" d="M1543,-52C1543,-52 1481,-52 1481,-52 1475,-52 1469,-46 1469,-40 1469,-40 1469,-28 1469,-28 1469,-22 1475,-16 1481,-16 1481,-16 1543,-16 1543,-16 1549,-16 1555,-22 1555,-28 1555,-28 1555,-40 1555,-40 1555,-46 1549,-52 1543,-52"/>
<text text-anchor="middle" x="1512" y="-36.8" font-family="Helvetica,sans-Serif" font-size="9.00">HTTP Traffic</text>
<text text-anchor="middle" x="1512" y="-26.8" font-family="Helvetica,sans-Serif" font-size="9.00">(user requests)</text>
</g>
<!-- leg1a&#45;&gt;leg1b -->
<g id="edge1" class="edge">
<title>leg1a&#45;&gt;leg1b</title>
<path fill="none" stroke="#22863a" stroke-width="2.5" d="M1397.63,-34C1407.37,-34 1433.33,-34 1433.33,-34 1433.33,-34 1458.8,-34 1468.75,-34"/>
</g>
<!-- leg5a -->
<g id="node34" class="node">
<title>leg5a</title>
<ellipse fill="black" stroke="black" cx="1630" cy="-34" rx="3.6" ry="3.6"/>
</g>
<!-- leg1b&#45;&gt;leg5a -->
<!-- leg2a -->
<g id="node28" class="node">
<title>leg2a</title>
<ellipse fill="black" stroke="black" cx="1181" cy="-34" rx="3.6" ry="3.6"/>
</g>
<!-- leg2b -->
<g id="node29" class="node">
<title>leg2b</title>
<path fill="lightgrey" stroke="transparent" d="M1342,-52C1342,-52 1268,-52 1268,-52 1262,-52 1256,-46 1256,-40 1256,-40 1256,-28 1256,-28 1256,-22 1262,-16 1268,-16 1268,-16 1342,-16 1342,-16 1348,-16 1354,-22 1354,-28 1354,-28 1354,-40 1354,-40 1354,-46 1348,-52 1342,-52"/>
<text text-anchor="middle" x="1305" y="-36.8" font-family="Helvetica,sans-Serif" font-size="9.00">Control Plane</text>
<text text-anchor="middle" x="1305" y="-26.8" font-family="Helvetica,sans-Serif" font-size="9.00">(kubectl, kubelet)</text>
</g>
<!-- leg2a&#45;&gt;leg2b -->
<g id="edge2" class="edge">
<title>leg2a&#45;&gt;leg2b</title>
<path fill="none" stroke="#0366d6" stroke-width="2" stroke-dasharray="5,2" d="M1184.81,-34C1195.05,-34 1222.33,-34 1222.33,-34 1222.33,-34 1243.69,-34 1255.7,-34"/>
</g>
<!-- leg3a -->
<g id="node30" class="node">
<title>leg3a</title>
<ellipse fill="black" stroke="black" cx="974" cy="-34" rx="3.6" ry="3.6"/>
</g>
<!-- leg3b -->
<g id="node31" class="node">
<title>leg3b</title>
<path fill="lightgrey" stroke="transparent" d="M1129,-52C1129,-52 1061,-52 1061,-52 1055,-52 1049,-46 1049,-40 1049,-40 1049,-28 1049,-28 1049,-22 1055,-16 1061,-16 1061,-16 1129,-16 1129,-16 1135,-16 1141,-22 1141,-28 1141,-28 1141,-40 1141,-40 1141,-46 1135,-52 1129,-52"/>
<text text-anchor="middle" x="1095" y="-36.8" font-family="Helvetica,sans-Serif" font-size="9.00">CI/CD Pipeline</text>
<text text-anchor="middle" x="1095" y="-26.8" font-family="Helvetica,sans-Serif" font-size="9.00">(GitHub Actions)</text>
</g>
<!-- leg3a&#45;&gt;leg3b -->
<g id="edge3" class="edge">
<title>leg3a&#45;&gt;leg3b</title>
<path fill="none" stroke="#6f42c1" stroke-width="2" d="M977.72,-34C987.71,-34 1014.33,-34 1014.33,-34 1014.33,-34 1037.5,-34 1048.72,-34"/>
</g>
<!-- leg4a -->
<g id="node32" class="node">
<title>leg4a</title>
<ellipse fill="black" stroke="black" cx="755" cy="-34" rx="3.6" ry="3.6"/>
</g>
<!-- leg4b -->
<g id="node33" class="node">
<title>leg4b</title>
<path fill="lightgrey" stroke="transparent" d="M922,-52C922,-52 842,-52 842,-52 836,-52 830,-46 830,-40 830,-40 830,-28 830,-28 830,-22 836,-16 842,-16 842,-16 922,-16 922,-16 928,-16 934,-22 934,-28 934,-28 934,-40 934,-40 934,-46 928,-52 922,-52"/>
<text text-anchor="middle" x="882" y="-36.8" font-family="Helvetica,sans-Serif" font-size="9.00">Image Pull</text>
<text text-anchor="middle" x="882" y="-26.8" font-family="Helvetica,sans-Serif" font-size="9.00">(container registry)</text>
</g>
<!-- leg4a&#45;&gt;leg4b -->
<g id="edge4" class="edge">
<title>leg4a&#45;&gt;leg4b</title>
<path fill="none" stroke="#e36209" stroke-width="1.5" stroke-dasharray="5,2" d="M758.61,-34C768.85,-34 797.33,-34 797.33,-34 797.33,-34 817.34,-34 829.85,-34"/>
</g>
<!-- leg5b -->
<g id="node35" class="node">
<title>leg5b</title>
<path fill="lightgrey" stroke="transparent" d="M1800.5,-52C1800.5,-52 1717.5,-52 1717.5,-52 1711.5,-52 1705.5,-46 1705.5,-40 1705.5,-40 1705.5,-28 1705.5,-28 1705.5,-22 1711.5,-16 1717.5,-16 1717.5,-16 1800.5,-16 1800.5,-16 1806.5,-16 1812.5,-22 1812.5,-28 1812.5,-28 1812.5,-40 1812.5,-40 1812.5,-46 1806.5,-52 1800.5,-52"/>
<text text-anchor="middle" x="1759" y="-36.8" font-family="Helvetica,sans-Serif" font-size="9.00">NAT Outbound</text>
<text text-anchor="middle" x="1759" y="-26.8" font-family="Helvetica,sans-Serif" font-size="9.00">(private to internet)</text>
</g>
<!-- leg5a&#45;&gt;leg5b -->
<g id="edge5" class="edge">
<title>leg5a&#45;&gt;leg5b</title>
<path fill="none" stroke="#b08800" stroke-width="1.5" stroke-dasharray="5,2" d="M1633.67,-34C1644.06,-34 1673,-34 1673,-34 1673,-34 1692.41,-34 1705.15,-34"/>
</g>
<!-- leg6a -->
<g id="node36" class="node">
<title>leg6a</title>
<ellipse fill="black" stroke="black" cx="545" cy="-34" rx="3.6" ry="3.6"/>
</g>
<!-- leg6b -->
<g id="node37" class="node">
<title>leg6b</title>
<path fill="lightgrey" stroke="transparent" d="M703.5,-52C703.5,-52 632.5,-52 632.5,-52 626.5,-52 620.5,-46 620.5,-40 620.5,-40 620.5,-28 620.5,-28 620.5,-22 626.5,-16 632.5,-16 632.5,-16 703.5,-16 703.5,-16 709.5,-16 715.5,-22 715.5,-28 715.5,-28 715.5,-40 715.5,-40 715.5,-46 709.5,-52 703.5,-52"/>
<text text-anchor="middle" x="668" y="-36.8" font-family="Helvetica,sans-Serif" font-size="9.00">Provisioning</text>
<text text-anchor="middle" x="668" y="-26.8" font-family="Helvetica,sans-Serif" font-size="9.00">(CloudFormation)</text>
</g>
<!-- leg6a&#45;&gt;leg6b -->
<g id="edge6" class="edge">
<title>leg6a&#45;&gt;leg6b</title>
<path fill="none" stroke="#586069" stroke-width="2" stroke-dasharray="1,5" d="M548.78,-34C558.93,-34 586,-34 586,-34 586,-34 608.58,-34 620.23,-34"/>
</g>
<!-- leg7a -->
<g id="node38" class="node">
<title>leg7a</title>
<ellipse fill="black" stroke="black" cx="346" cy="-34" rx="3.6" ry="3.6"/>
</g>
<!-- leg7b -->
<g id="node39" class="node">
<title>leg7b</title>
<path fill="lightgrey" stroke="transparent" d="M493,-52C493,-52 433,-52 433,-52 427,-52 421,-46 421,-40 421,-40 421,-28 421,-28 421,-22 427,-16 433,-16 433,-16 493,-16 493,-16 499,-16 505,-22 505,-28 505,-28 505,-40 505,-40 505,-46 499,-52 493,-52"/>
<text text-anchor="middle" x="463" y="-36.8" font-family="Helvetica,sans-Serif" font-size="9.00">Pod Placement</text>
<text text-anchor="middle" x="463" y="-26.8" font-family="Helvetica,sans-Serif" font-size="9.00">(runs on node)</text>
</g>
<!-- leg7a&#45;&gt;leg7b -->
<g id="edge7" class="edge">
<title>leg7a&#45;&gt;leg7b</title>
<path fill="none" stroke="#24292e" stroke-width="2.5" stroke-dasharray="1,5" d="M349.88,-34C359.75,-34 385,-34 385,-34 385,-34 411.75,-34 420.94,-34"/>
</g>
</g>
</svg>
